/* XPM */
static char *_32805cdc36744f48fe8ad9a4bb6bae436vVIgR64d0uaxtS[] = {
/* columns rows colors chars-per-pixel */
"64 64 244 2 ",
"   c #030101",
".  c #0C0302",
"X  c #130503",
"o  c #1A0504",
"O  c #160906",
"+  c #1C0A05",
"@  c #100608",
"#  c #160A09",
"$  c #1C0C0A",
"%  c #1D1109",
"&  c #1D0E10",
"*  c #1B1111",
"=  c #240607",
"-  c #220C06",
";  c #2A0C04",
":  c #220E0B",
">  c #2A0D0B",
",  c #340F0A",
"<  c #380D08",
"1  c #261107",
"2  c #281107",
"3  c #24110D",
"4  c #2B130C",
"5  c #331507",
"6  c #33130C",
"7  c #3B130E",
"8  c #2B0E11",
"9  c #251412",
"0  c #2B1513",
"q  c #261A14",
"w  c #2D1915",
"e  c #2C1B19",
"r  c #331612",
"t  c #3B1512",
"y  c #331A15",
"u  c #3A1B13",
"i  c #341D1B",
"p  c #3B1E1B",
"a  c #2A2116",
"s  c #392017",
"d  c #37211E",
"f  c #3B211C",
"g  c #361E20",
"h  c #392522",
"j  c #3D2423",
"k  c #3F3424",
"l  c #41140D",
"z  c #4A130B",
"x  c #571A0D",
"c  c #431A14",
"v  c #4B1B14",
"b  c #491817",
"n  c #431C1B",
"m  c #5A1E12",
"M  c #47241A",
"N  c #4B221C",
"B  c #532611",
"V  c #542115",
"C  c #5C2216",
"Z  c #54231D",
"A  c #5B251D",
"S  c #5C281C",
"D  c #60210F",
"F  c #632515",
"G  c #6A2413",
"H  c #642916",
"J  c #6B2C14",
"K  c #63251B",
"L  c #642A1C",
"P  c #6C2C1C",
"I  c #762E17",
"U  c #732E1D",
"Y  c #69321B",
"T  c #763318",
"R  c #74311E",
"E  c #7C331D",
"W  c #442521",
"Q  c #4C2A26",
"!  c #572724",
"~  c #5D2B23",
"^  c #4C3729",
"/  c #5E352C",
"(  c #523737",
")  c #583732",
"_  c #642C23",
"`  c #6B2D22",
"'  c #682B26",
"]  c #632E2A",
"[  c #722F22",
"{  c #653124",
"}  c #6C3225",
"|  c #64322B",
" . c #6C342B",
".. c #663C28",
"X. c #6C392D",
"o. c #743323",
"O. c #7B3524",
"+. c #753A24",
"@. c #7C3926",
"#. c #73352B",
"$. c #7B362A",
"%. c #743A2D",
"&. c #7C3B2C",
"*. c #643631",
"=. c #6B3631",
"-. c #6D3A33",
";. c #663A38",
":. c #723732",
">. c #743C33",
",. c #7B3D33",
"<. c #743E39",
"1. c #793F39",
"2. c #61461D",
"3. c #7A422B",
"4. c #684338",
"5. c #754136",
"6. c #7C4135",
"7. c #75423B",
"8. c #7C433A",
"9. c #7D483E",
"0. c #793944",
"q. c #574242",
"w. c #624745",
"e. c #794843",
"r. c #7E4B42",
"t. c #765350",
"y. c #83381F",
"u. c #803623",
"i. c #833A25",
"p. c #8A3E26",
"a. c #843729",
"s. c #833D2B",
"d. c #8A3E2B",
"f. c #803530",
"g. c #823E31",
"h. c #8D4426",
"j. c #84412D",
"k. c #8B412D",
"l. c #92442C",
"z. c #954A2E",
"x. c #844334",
"c. c #8A4433",
"v. c #864837",
"b. c #8D4936",
"n. c #83453B",
"m. c #8B4639",
"M. c #84493D",
"N. c #8B4A3C",
"B. c #924633",
"V. c #924935",
"C. c #974936",
"Z. c #924C3B",
"A. c #9A4E3C",
"S. c #86513A",
"D. c #96513C",
"F. c #9B523D",
"G. c #A4523B",
"H. c #844B42",
"J. c #8C4D42",
"K. c #864B48",
"L. c #924E41",
"P. c #944E47",
"I. c #8C5245",
"U. c #8C534B",
"Y. c #885448",
"T. c #935245",
"R. c #9C5443",
"E. c #94544A",
"W. c #9A564B",
"Q. c #95594D",
"!. c #9C594D",
"~. c #885755",
"^. c #975753",
"/. c #955B53",
"(. c #9C5C53",
"). c #A35643",
"_. c #A35946",
"`. c #AB5A45",
"'. c #A45648",
"]. c #A25B4C",
"[. c #AA5C4B",
"{. c #B25E4D",
"}. c #A45652",
"|. c #A35E53",
" X c #AE5E54",
".X c #B25F5B",
"XX c #9D614E",
"oX c #8B6A5B",
"OX c #9C6054",
"+X c #95615A",
"@X c #9C625B",
"#X c #956A59",
"$X c #A76147",
"%X c #AD624E",
"&X c #B6634B",
"*X c #AA764D",
"=X c #A56153",
"-X c #AB6354",
";X c #AA6C55",
":X c #A4635A",
">X c #AA655C",
",X c #A46A5D",
"<X c #AC6A5A",
"1X c #B36353",
"2X c #B76A57",
"3X c #B3665B",
"4X c #AB725A",
"5X c #B67856",
"6X c #A15E65",
"7X c #866563",
"8X c #986865",
"9X c #9C756B",
"0X c #9B7A75",
"qX c #A66767",
"wX c #A66B63",
"eX c #AD6C63",
"rX c #B46D64",
"tX c #B56D67",
"yX c #A97669",
"uX c #AD746A",
"iX c #B87565",
"pX c #AB7972",
"aX c #B97975",
"sX c #C46D5A",
"dX c #C37A69",
"fX c #C27C7A",
"gX c #AF806F",
"hX c #BD816F",
"jX c #A48479",
"kX c #B7877B",
"lX c #B69477",
"zX c #C48477",
"xX c #C3957A",
"cX c #AC8B84",
"vX c #B68986",
"bX c #B79588",
"nX c #BD9E93",
"mX c #C68A86",
"MX c #C6968A",
"NX c #D99286",
"BX c #C49993",
"VX c #CFA590",
"CX c #D3A697",
"ZX c #D5B2AC",
/* pixels */
": u f o u e y $ . y o > - 4 y 9 9 p . + 3 $ $ : $ e . 2   q O M 4.2.(.7.@X,XpXe ~ k $ X + X + .   # % % ^       % .   X . . X   ",
"/ 8.n.N.(.n.6.n.  E.Q.E.} >.L.l L ` [ H.,.,.<X&.W.. n.X.= 9.7.eXK.9.1.<.] 9.8.7.8.,.. -.:.' -.! >.8.1.9.E.n.*.>.=.H.aX. x.%.U P ",
"|.aXE.(.J.T.(.wX$ >.P.N.M.n '.,.Z.N.iXg._ ,.g.W.v.. H.<.@X9./.Q.7.,.*.<. .>.#.H.1.n   ! n <.-.,.:.,.,. .n.1.,. .#.1.1.$ *XO.$.f.",
"E.|.c I.6.I.M.. $ J.J.J.N.4X=XE.n. XQ.8.m.x.L.W.n.X W (.U.8.9.(.5.7.M.>.8.*.M.9.,.,.  -.~ M.| K.Z J.>.:.1.n.:.:.J.' :.V J &.[.$.",
"] ^./.Q.:X/.M.K.8 ] >.I.E.|.J.,.8.N.<.J.c.#.N.i >.$ X.>.7.;.6.>.A 7.1.9.6.M.>.~ ] X.. t 8.wXH.~  .J.} X.M.' P.n.H.1.%.O 3.F $.Z.",
"P.K.K.U.K.o e.U.O A c # o . X .     ; 1 6 2 - + = $ ; = 6 2 6 + + 1 ; o 1 + - 1 X - X 2 + = = o . o r X X   . .   = , X 7 6.N.4.",
"$ 3XH.I.>.8.8.M.8.J.A OX^.  (.6.| + x.M.6.x. .} XX4XM.#Xx.&.x.Z.,.  $ | n.K.=.+ X.6.M.n._ A <. .] 7.] ^ VXfXtX|.P.#.l ,.} Z { ~ ",
". :X/ P.:X:X8.N.n.J.J.%.N.6.~ } N.. 6.T.R.x.N.S.b.x.P.!.j.].x.T.x.L   Z n.,.H.n.8.#.g.%.%.M.1.n.|.1.,.Q _ g.&.G g.m.m.m.L.$.[ [ ",
"+ N.I.aXJ.T.<XN.J.J.M.N.V $.n.T.6.O Z.V T.3.M.X N.x.u x.m.N.3XP.&.4X. %.#.Q.M.n.9.J.  ,.T.J.#.P.n.>.,.  ' &.Z.#.g.$.g.o.$.$.Z.s.",
"# M.= W.M.|.J.E.W.H.. Q.J.!.I.J.5.. w !.W.-X&.&.M.Z.v.x.R.-X,.s.%Xx.. ! >.X. .L.J.BXn.9 J.,.1.J.g.%.v.. _ g.R.,.&.$.$.o.$.K g.&.",
"+ $ I.M.E.N.X.E.!.J.T.|.T.N.M.].W.@ T.,.I.N.%.N.#.Z.Z.6.N.!.N.n.W.&.@ 4.,.! J.J.x.8._ 8.:X] ' ,.,.=.#.. _ g.g.g.&.m.[ m.m. X3X].",
"3 1 . + + 1 3 . 1 . - X .   X + 6 3 4 4 u - X   4 + + 4 4 > 4 $ . 1 * 1 - X -   % s X   o . o o = . . r .   = o o O .   o . X . ",
"*.~.e.*.;.=.8X@ P.T.>.x.T.,.!.%.J.! x.,.|.N.m._ !.#X8.| ] x.n.Z.v.,.aXg. .J._ $.T.&.  eX8.] :.%._ ' %.%.>.` L.$.r [ [ ].iXo.,.$.",
"9.K.7./ & t.e.$ y :XE.n.v.o T.E.T.T.N.] ,.%.m.>.-.d J. . .x.x.M.T.eX].%.W.g.x.&.-Xx.# / ` Z.J.N.} $.$.g.[ g.&.[ I.[ ,.&.nX%.g.c ",
"~.e./.e.W e.4.o n W.I.J.!.6.J.n.D.#.P.%.~ ~ !.v.(.& 6.>XqX!.P.P.v.c } R.#.>XW.g.S v.X uX!.g.g.,.#.T.W.x.[ s.#.m.x.&.s.o.ZX~ &.[ ",
"9.7.U.r.~.|.+X$ n M.>.T.N.:.L.L.(.x.E.3XL.P.L.E.! . :.X.' n.8.N.tX,.#.X g.] N.b.N.%.$ MX> n.#.g.!.L.A &.N.$.O.` #.. $.x.ZXK C O.",
"7.+Xr.H.7.7.7.9 H.J.a J.W.%.E.M.M.x.M.M.T.J.|.I.n.3 N.E.M.n.W.n.N.  !.=X!.F.A v $.,.  lX_ x.c.M.T.o.&.o.} 6.$.&.s.&.#.Y bXgX&.j.",
"  + + $ q O 1 3 e . e r + O   + $ . O . + $ 3 1 O : . X 4 0 0 3 1 1 $ 1 - $ + 2 + i 4 9 . f 9 + 0 0 X $ . 3 3 y 1 + O + X X   + ",
"9 8.-.H.@X9.>.*.1. .=.=.>.r.H.J.>.oXS.6.>. .zX,.X.] -.#.J. .6.X.6.Z i %.v.v.kXx.%.#.X.- } }  .] 8.} b $ #.&._ ` _ ' :. .x.#.&.#.",
"X H.5.H.M.5.H.8.tXM.M.>.H.%.K.E.Y.. M.Q.Q.8.8.6.8.M.>.v.6.J.J.I.X.H.9 c.x.@.&.M.{ ,.%.%.K. .>.,.1.] X.. ;X$.&.&.$.c.#.&. .L $.` ",
"O K./.H.U.^.~.qX|.X.,XU.Y.E.I.~ Y.% 8.H.6.tXOXXXJ.7.J.H.I.M.I.-.%.x.. n.$ N.>.n.N. .%.L M.= -.8.=.:.u . J.= #.Z.].g.L.x.#Xm.o.#.",
". 8.8.H././.U.>XI.8./.I.=XH.Q.(.-.X M.>XJ.:.>.E.Z 8.5.n.Q.J.^. .8.*.. %.%.&.W.N.M.n.,.:.%.6.M.n.n.].>.. J.$.m.g.n.g.$.#.,.$.g.g.",
"O r.J.Y.Y.K.8.Y.9.6.qXI.6.E.I.>.8.. :X(.(.H.@XE.5.I.8.Q.n.%.<XM.M.8..  .T.g.X.%.X.>.%.9.E.%.M.T./.=.>.. M.m.1.1.:.P.%.#.x.,.J.#.",
"Q O . - 0     O # : $ 1 $ % 3 4 p i M w 4 O . 9 + O X $ X O p y i 0 0 + $ w $ $ . - $ + - y . $ $ 0 w   0 X + o O 9 # $ $ 4 0 O ",
"N.s.-.o.-Xc.g.U.} aXG.b.&.c.[.b.c.x.s.x.u c.[.s.Z.. &.N.j.R.b.XXc.m.x.x.s.&.m.V.&.R . : &.B.x.s.s.A.s.O.' . O.+.[ g.A.  _ } $.x.",
"T.F.Z.g.R.> Z.0.&.Z.T.b.$.).G.t P Z.2XV.{ R.&.Z.@.  T.x.tXZ.x.x.W.v.x.s.x.x.x.c.&.s.  ].[ c.z B.c.c.A.VXc.a.o.c.d.C.s.  L s.R +.",
"'.L.dXc.Z.m.Z.. +.[.b.j.1X<X`.c.L.#.Z.Z.Z.P `.Z.R.$ s._ x.!.R.L.c.k.rXb.4 '.P.V.L.#.. $.s. XhXB.zXc.k.s.a.p.k.'.tXc s.  +.V.j.i.",
"-Xb.Z.R.R.t t W D.$X_.F.l 2X6.V.Z.` D.1X1X'.w A.T.. N.=Xm.Z.sXx.b.L.$.R.c.x.x.$.m.&.$ }.o.[ R.s.c.C.`.Z.s.&.O.i.F.A.O.X L Z.2 P ",
"!.R.L.m.T.b ` ;.+.Z.P.` [.R.r 1XL A.b Z.W.c.1X1Xj.@ %.3Xc.|.X.x.| Z.A.! g.V.c.&.eX:X. !  .t > , 6 X 7 ; H ].` `.C.Z.s.. &.b [.c.",
"y p 9 9 y 1 3 i w ^ i p e : y 0 @ q & O . :       7XpXX o $ # > ( u $ t.i w.;.~.9XBX0XjX7XpXoX9XcXoX9XO ( Q j h Q ( 0 $ r jX+ $ ",
"+ M.eXM.>.,.%.M.v.v.X %.!.&.L J.J.. =.1.wXU.<.1.X.Q ~ >.E.J.8.8.>.] . N 8X5.7.:.u -.v 6.,.| &.} ~ 8.:.. >.] ,. .:.r.~ n.1.P.~ >.",
"+ E.M.  E.Q./.T.K.M.J.n.,...+ M.m.. vXH.(.>./.-.Y.-.-.-._ >.e.n.8.n.@ | ] yX8.%.-.M  ._ ] n._ v J.#.%.o ] :.^.=. .' U.` ' ` 1.r.",
"$ >.Q n.(.].U.!.H.6.|.T.N.W.J 8.E.# 7.5.H.8.K.wXe./.U.,.>.9.%.Y.1.>.  -.,.1.} 1.>.>.-.Z 6.,.] ,.#.} . . aX:.,.! J.6.%.} ,.] ,.,.",
"  x.E.M.(.Q.} M.J.|. .| L n 6.J. .$ ,.Y.  8.r.>.H.H.8.Y.8.X.| X.n.>.O 6.0 X.7.:.X...,.=X:.8.#.} qXM.{ . N (.n.8.>.  Q >.>.#.:. .",
"$ o ; Y M > - 4 . O 5 6 , ; o . -   1 4   O O 2 3 . X . .   X O =   @ .   . + @ X X O + o X O . + u . . .   o o X .   o   -   o ",
"/./.aXMXMXMXCXq.!.zXpXOX=X4XI.zXOXkXpXmXiXwX,X,XBX6 ;.6.I.<.6.6.5.3.{ ) eXkX>.8XZ 5.) o.+.m o.A.+.&.@.o.H J.H J.F ,.L e e f vXVX",
"N.v.N.L.&.6.&.4 ,.W.P x.P.s.E.m.x.L Z.K R.Z.v #.> p ,.x.} %.>.} ,.pX%.6.X.6.#.6.9.8.. &Xd.s.c.d.B.H O.u.k.C.u.B.s.u.k.X _ %.6.L ",
"` N.m.,.#.W.6.1 c.b.` c.F.x.b.%.,.s.&.&.c.b.d.c.n.@ %.,.6.>.E.#.#.Z.>.%.%.S M.%.M.!   &.s.E E l.d.k.k.O.A.O.d.C.B.2 i.. ` -XY &.",
">Xv.T.-X&.6.N.> J.N.D.P.R.s.x.O.#.Z.&.O.R.V.3.s.`   ~ x.g.. x.N.8.#.T.W.8.6.,.#.J.M.& d.i.C.i.%X`.I k.U dXd.c.s.k.z a.$ } c.M.L ",
"#.!.I.x.,.E.x.o ] F.D.b.R c.&.D.V.k.&.O.O.x.s.c.G.  #.J.!.n.M.6.6.%.6.>.x.| ,.X.b >.$ O.o.u.k.. U D.C.j.m.` d.d.k.k.%.. ` ' &.} ",
"s     X X .   + $     - O   X   . . X +   . O . . a . $ . 1 + . X .   O . + = . + 4 9 o . O o   O   O X   X   o > X   9 .   .   ",
"O { | >.K.7.pXH.U.<.U.7.X.e.5.r * uXZ.6.8.6.#.o.x.H S.N.] *XC Y.P =XVX} >.g.c y :. .A { #.%._ } v._ wXkXL b.G.G o.H J o.o.F   P ",
"O E.x.{ N.E.M.n.,.<.#.N.| T.' }   n.x.b.&.Z.v &.b.A.A.S O.L j.s.` &.J.hXx.[ %.&.%._ #.%.#.{ x.Q } A !   o.i.O.F.u.%Xi.a.O.d.qX[ ",
"  b >.V !.uX,.n.= J.^.] %.M.>.,.r.:.N.x.v.V.x.{ Y.c.x.m.c.&.%.Z.u m.8.T.%. .} x.' ,.n.mX6.n.; 6.8.,.N.  p.p.d.i.@.E E C.d.a.u.U ",
"9 } >.L v.. ,.T.!.v.u x.|.,.N.L -.= R.iXc.1Xx.x.x.x.S %.o.c.O.x.O.#.7.R.} %.x.,.V } _ %.M.6.%.3.l ,.,.  l.dXi.U i.i.d.u.i.s.[ O.",
"  #.E.N M.n.<X,.6.%.T.T.T.J.,.%.  [.g.%., 1X,.D.&.M.Z.c._ x.&.o.R.Z.(.%.o.o.#.Z. .x.  M.' #.S %.6.#.-.u l.i.s.E ).O.x.O.O./.U E ",
"0 3 0 # O o $ $ $ $ y 4 3 0 0 9 j e 4 - 3 O X 1 1 - 4 3 *.1 1 + + u e 3 w 3 $ w   $ 9 q.. + j O . X $   + .   X o o + O . O X X ",
"Z p ~ ! c <.X.X < x.&.j.&.!.A.+.&.g.j.O.c.o.+.L.f CX. #XS >.#.N. .,._ O.6.` N.t o.C #XY c.O.R c.O.g.d.s.c.T T i.G O.J 9 K s.d.L ",
"(.H.<.H.eX7.-.. } V.B.b.j.c._.Z.P Z.d.`.j.c.j.Z.r 0  .` n. .,.6.#.O.  o.K s.c.6XR.R # B.O.O.i.G.B. XB.B.p.i.l.p.y.y.U 3 U R m 7 ",
"r.@XY.7.e.p r.. ! c.k.s.$.[.c.c.].j.F.x.&.V.i.O.M w J.,.,. .&.,.` ~ &.g.Z.  c.O.Z.V.e s.s. X XB.E i.B.l.h.l.p.G p.p.=   lXE G J ",
"/.-.-.r.7.5.8.  W.O.j.s.j.V.` F.b.Y 7 o.D._.@.3.  : 8.:.M.%.x.N.,.%.&.x.@.c.$.s.s.H 3 F j.d.R s.c.p.m l.k.p.E ZXu.p.u.  j.R L @.",
"r.-.~ U.8.v :..  .3.s.b.&.b.c.c.Z._.o.c.b.x.c.&.<X0 } wX>.,. .%.P.n.X F.+.+.s.fXO.c.# R U y.s.k.u.s.s.E O.B.E R G.U p.o #.R x y.",
"d y + # h 9 d f . > $ 4 9 $ $ $ W 3 % d # $ i . : e w.# # $ . $ . e $ i 3 p # h y $ 0 $ W i $     y y   e : + # O $ e p X 3   $ ",
"P #.D._ P ` !.&.` t x.~ c.v.&.t X [.&.o.&.@.L H #.O.+.{   s.&.x.F : W.L o.' ` c.` v P o.J o.m.&.c.+.&XMXE ` @.K O.o.o.N.o.C &.U ",
"&.6 $.&._ Z.,.x.&.x.] Z.%Xv #.b.  P u.c.&.s.F.b.C c.B.o.O.j.@.O.C X +.O.C [ g.G.m.. $.U O.B.o.A.s.R 2X3XO.u.O.B.[ &.&.).C @.i.R ",
"v.&.N.&.b.Z.o.x.J.b.T.x.` x.2X@.3 &.R &.s.&.N.j.'.&.$.1X-X&.R.s.s.. #.O.o.d. .d.c.a.s.A.[ c.O.m.V.o.- t.y.L O.k.O.s.d.O.B.O.` P ",
"b.x.@.I.,.[.@.R.#.c.m.'.$.&.O.@.o j.J s.p.=XP o.&.  [.Z.O.s.P &.R . m H @.U J u.$.+.x.v O.R A.s.F D.&.K.h.i.P U P O.k.l.c.o.U o.",
"6.L !.6.,.@XeXn.E.b.,.v.D.%.3.N.X o.N.T.v.,.%.N.%Xx.s.m.` &.j.&.@.  .Xc.O.P o.L.Z.m.= 5X} O s.m '.L B # ' ; ..  L @.C.L.&.o.m.< ",
"o lX  * 3 # y   i y Q   r $ o # @ 9 p ) 1 e $ 9 . e 0 y 0   $ . 0 e $ 7Xg 3 0 $ . $ $ q w.e i Q ) 8X9Xt.yXcX0XkXbXcX;.0X9XbXjXcX",
"#.,.U &.&.{ 3X. CXx.m.s.@.o.j.o.O.V.P &.c.c.s.G   0 R k.O.} G o.+.O.o.O.1Xs.E > u.s.9 j.U u.E +.s.F O.k.  #.p.E k.O.O.y F s.j.P ",
"[ x.&.&.&.#.[ . xX&.s.#.x.[ ` c.S &.i.c.Z.o.7 s.    F._ F s.E E k.7 i.H k.`.k.p.E @.O @.k.i.o.a.E d.h.d.O.O.K i.E 4XG . R s.s.P ",
"I.v.> _ b.B +.. eXm.&.`.U O.*.R l.&.[.k.s.. O.+.. y O.F.{.O.s.B.NXO.@.j.s.'.k.`.z.a.# [ h.u.E : k.<Xm.O.iXp.k.k.[ u.P . J I U U ",
":.s.mX$.A 6.b   2.c.z.s.@.s.k.j.Z.o.} O.iXc.#._   1 @.E U T D z z.k.;XR U E T u.T i.M yX+.k.s.J u.x c.O.U i.O.y.o.I o 9 u.= s.U ",
"+ o o   Y X.2 $     R.R.B.E T 2X1 Y.&.@.&XC.m.$   > 1X&X@Xs.&.U l.J 5 B - p.  7 @.y q Y sXE   - o . M .   X   X O X . .   o o   "
};
