/* XPM */
static char *e443bfb3b057487be47fe6d2e08101c5VnZK3M0IESwX4mOf[] = {
/* columns rows colors chars-per-pixel */
"64 64 123 2 ",
"   c #4A4246",
".  c #575152",
"X  c #5B5454",
"o  c #5F575A",
"O  c #635C5C",
"+  c #655E61",
"@  c #676061",
"#  c #6C6465",
"$  c #6F6867",
"%  c #6E666A",
"&  c #6F686A",
"*  c #736C6D",
"=  c #796E6E",
"-  c #77706D",
";  c #766F71",
":  c #786F70",
">  c #777071",
",  c #7B7474",
"<  c #7F7877",
"1  c #7E767A",
"2  c #7F7879",
"3  c #807977",
"4  c #81777A",
"5  c #837B7C",
"6  c #87807F",
"7  c #88817F",
"8  c #867E81",
"9  c #878081",
"0  c #8B8484",
"q  c #8F8887",
"w  c #8D8689",
"e  c #8F8889",
"r  c #908987",
"t  c #90868A",
"y  c #938C8C",
"u  c #97908F",
"i  c #99918E",
"p  c #968E91",
"a  c #998F91",
"s  c #979091",
"d  c #9B9494",
"f  c #9F9897",
"g  c #9E9699",
"h  c #9F9899",
"j  c #A09697",
"k  c #A09997",
"l  c #A19699",
"z  c #A29B9C",
"x  c #A99F9F",
"c  c #A7A09E",
"v  c #A9A29F",
"b  c #A49CA0",
"n  c #A59DA1",
"m  c #A59DA2",
"M  c #A79FA5",
"N  c #A99FA1",
"B  c #A7A0A1",
"V  c #A8A1A0",
"C  c #AAA3A3",
"Z  c #A9A3A5",
"A  c #ABA2A4",
"S  c #AAA2A6",
"D  c #ABA4A5",
"F  c #ADA6A5",
"G  c #ACA5A6",
"H  c #AFA8A7",
"J  c #AEA6A9",
"K  c #AFA8AA",
"L  c #B0A9A7",
"P  c #B0A7AA",
"I  c #B1A9AB",
"U  c #B2ABAA",
"Y  c #B0A8AC",
"T  c #B2ABAC",
"R  c #B3ABAF",
"E  c #B4ADAC",
"W  c #B5ADAF",
"Q  c #B7B0AF",
"!  c #B8B1AE",
"~  c #B5AEB1",
"^  c #B7B1B2",
"/  c #B6B3B3",
"(  c #B8B1B2",
")  c #BAB3B4",
"_  c #BDB5B7",
"`  c #BCB4B8",
"'  c #BDB7B8",
"]  c #BEB6B9",
"[  c #BFB8B9",
"{  c #C0B9BA",
"}  c #C3BCBB",
"|  c #C2BBBC",
" . c #C3BCBF",
".. c #C4BCC0",
"X. c #C5BDC1",
"o. c #C6BFC0",
"O. c #C7C0C1",
"+. c #CAC3C5",
"@. c #CAC2C6",
"#. c #CCC6C7",
"$. c #CFC8C7",
"%. c #CDC6C9",
"&. c #CEC6CC",
"*. c #CEC9CA",
"=. c #CFC9CA",
"-. c #D1CACB",
";. c #D0C8CC",
":. c #D2CBCD",
">. c #D3CDCE",
",. c #D5CED1",
"<. c #D6D2D3",
"1. c #D8D1D2",
"2. c #DAD2D4",
"3. c #DCD8D7",
"4. c #DCD6DA",
"5. c #DCD8D9",
"6. c #E1DADD",
"7. c #E4DCE1",
"8. c #E7E2E3",
"9. c #E9E2E4",
"0. c #ECE5E9",
"q. c #EDE8EA",
"w. c #F4EEF1",
/* pixels */
"s f > l h l 0 h f < f s t f d f - d z d c h z , f h y k h f > l z r c z l 2 z z 8 h s y u h g $ l z 0 z g b % l h , d h y h l f ",
"z z s G d z f _ d s y d z f T h y u s s h z p z ~ l f i w y B ~ z f f s h h K f g e d y z V s Z ) z f s d h M ~ z z g g g h z d ",
"g M z y % t g 0 <.l z & s k , ..d d 9 g h & 5 d d } f u , s g 0 ;.s g * z h > @.Z g , d n ; G y z >.f g ; 0 B , ^ z d w z s > z ",
"y s y p I z B f z c 9 z f B B B c e h B c s l Q s i d s s v z f h z K V s z f z d d y d G v N B 9 y l V h d Z h z p p z z p v z ",
"z s $ l z z y d z @ f f s f g h $ l z e h f c , z z < z z s 2 g g - h s D 2 z h & g h B d s d # l z 9 x s n 1 z z @ h g I s f s ",
"0 G p l 1.l d e q l g ;.z s ~ p z s [ z f @.c s 9 z d d =.f B s y n B <.z l D d h y O.h z ] z l > h h h =.z z Z t z w  .h d O.f ",
"I * g s e Z h z 8 z T 8 f z s ~ d B ; s z e | z z ; f d 8 s z c s h d 5 y h d K d h ; d h d ..g ^ & g h 9 B h K ( g Z * s c y ] ",
"f s f > f z V z h l y v z s d s n h h d y z h D c f z 0 z f D l f z w d g Z h s h 5 B z z l l v p z n y f c B z z d t z g f f f ",
"h h p z s h z s z s f h s f s h d g h 8 d h g z h z 5 z n g V z g 2 h B g c f h h f g h z g p B h h p h z h G d h h f f n h d z ",
"h | Z w @ h h f w.c l ; e l 9 q.z l w y z % 9 d c @.z d X 2 f i 4.B h 2 s h 5 <.s d 0 g d 5 &.p b ,.z h > 5 z f 7.h z s z f @ [ ",
"T g K Q n > n n p y ( f 9 f h 5 s ] z w n g # B V g f B B % z G e s n h t z D 1 y Q Z s z f - c ) g y n s = z T 5 d T z z z f * ",
"s g s y z f t s z z k f z > z z Z h g p , z s T d z d , B s H f z u , n d v h h d y h d < z c ) z z z 5 z d E t n z s z h > z z ",
"z y g k c g h h s V h g f f s l z z a g f h z h d p z z H s z u p l z f h l f g z c s l s s z s h y z l k z k i h c f s d g h n ",
"d , w l w =.h z p z l - E f z ^ p k = M V y q.h d 1 y h 5 <.z l s f f * V z f ^ h f > l l f  .f z > y h 9 2.y x R g s = 9 z g &.",
"z d 5 E l d k d h h Z s 9 G B z z ~ i 9 Z d h B c z w D z z d z c q Q i r z N k k ] l 5 V d f d h h w c s d u z V z G l 8 V f f ",
"z z Z z z z $ z k n x z z * d s J z z y 8 z z u f f z 5 z z r f c u u v z 0 l s z Z x z * u z d d z d 2 z h q z s d z Z Z O f y ",
"l 1.f f I g z f K f f 3.i f w 5 g f 7.n c c s h z  .z c $.h z y z d c 8.g h e w c c 6.z h s 5 B K ..y z ^ h z < y z z 9.z f s w ",
"f 5 z d p R v s # q c e $.f z $ h z w #.h z n g h = z c z =.B B & q f u 5.z n > h h y ..g h 1 V z 1 g h s ^ H y $ u z 0 -.g d w ",
"q f u I f z l y l d l f l B z f f y l z D z n h y d s z u z h s h d G f z c i h f V f z z s g f 9 z l B d h s 0 h f h h g G h h ",
"z f u V z h , k h 5 h n z 6 f h , z z d 9 s s ; z z s y z h * z c u s h h - s l u c f l , f h * z z z w h h @ h s 5 z z l 5 u z ",
"h ) h f & Z n g 5.Z g 1 s f p 7.M d w w d , B Z c  .g h + u h f >.z c , w b w ,.h s w g z 8 @.D y  .g h * p s n <.b h B s h 5 } ",
"z h [ z s o g l y l d Z 5 h l ; p g Z p s s   d l d R f z X z l r z c c 5 h h 5 e z V h d B = y z J c z v X v l 5 f s B R f h $ ",
"e n n z d s f l y y < f c B f 0 p 0 h z K u s p f f n ~ s V s d s f E d Z f s g f f z n h B z d , s z V z d y y g s q z Z D l z ",
"h y w f s g d f f r d y f z h I , k w h z e h t h y y G s d e p s r s s h e l b y l w g c u B y d y d n y f s u b y l e g f z z ",
"h & 8 z p ,.h s p z h 1 O.h d z p x , ] f 0 7.f s 1 p z w 6.z g p y L 5 | p z K z s > D l z ) h z 9 s z t 6.u z b s l > g z h [ ",
"H f 5 c h f d I g y j z 9 z I V s V g 0 j B s s E l 0 g d y z K z y z k 0 n K z s z l w f I z h D f e z H f f L g p z f 5 z I l ",
"y c s 7 z z l z d f > z f d k z s 5 l B b g d s e h z l g g f s f s i c b d p h z 5 h h f z f h * c d s z l 9 r b s 5 d h z z d ",
"d z d f s y g z I l z y s h g V B z f s Z z y B z B z z k w v f G z s y p n z z g g y d z B s D z Q z h z s c k z N l w d f z f ",
"z u ~ f x > p d t q.g g 4 g c $ d h n g g d 5 t h g O.d s , y h 0 3.l p 1 h h 1 ( y y d f h % 5 h s =.h d 5 w d , ( i b 9 J z , ",
"v s z z y h g E f L z z l h I d g f h d h @.s p D g h l / D d V z x d P g s N a i c 0 B d ~ d h B d d f T z p z f d l f Z z E z ",
"5 h z w f z z y l g ; z s n V s n * h p I z s s 5 d g B p d z 8 f s Y b g d 8 d p 9 n z B z d h % s h g z d g 1 l s * b n d z z ",
"z w s z z #.z d z p s d ) h z ..g h y ~ Z s =.z h y s h K ..p n n p g g ~ n g ..h d w G z h =.p h y s h l @.z g { s k y z h f &.",
"h l ; h z 5 D h k L z d - u f r ,.h d * d G , D h h w N h , u z g z v s > j s s =.g s & s l w <.l h 9 c z > 9 h p ) z s & k g 8 ",
"G h g g s z f D h y z g k d d u f B f l s l B s D s s d z h k V g g n s i k R k f h s B l z f d z c z z u z s H z d Z Z n l y k ",
"z z G . z f w d y z $ z D 6 z k h 5 g b p d z s y d g w z f z q b d > z z s f f g O h h y h p g > h h 5 c n c f u s * s s w z d ",
"s @ > d h 9.b z p Z V 0 &.s z ' g h ; ^ z n w.n z 2 8 g s w.l f s 0 z 5  .d h  .K h & D h h O.g h , s d y q.d g K n h * h d n <.",
"n g @ g f e f f z y z f > s s f K G f ; f z s s g s , h s 0 l s h s h h ; s f z ~ p B + s z s B d B 5 z z 5 w s u l l h . h z g ",
"0 g n Z l g d 5 f z V l g f r f g z j z z d z d q d n V z z f w d h B h h d w h l c f z l 6 s s V f g n g l d w f k Z s n s e l ",
"z s h h y f w s s h z z z w i y w s s N e h d 2 h s l y y s , z d h s t h 2 h t B h s z 0 f y z d z g s s h y d p f n s B e d d ",
"s 9 9.B z p p g = s d z O.z j , t l s >.h g w l u 5 O.d f K z f ; z J h =.z V > 8 B d 2.z n 8 d g 5 ] d h h f f > p h e 8.s z 2 ",
"s z l z J h y B h , s z V z I v 1 s l n s z Z t l f u y k z f s d 2 g s H f s k - d z V d Z h 2 z V q s I V d s g 5 l z z d Z l ",
"5 D s ~ V n f > f z I z z v r u d k z d ~ x d z 9 s f v J n k 9 V f c l z h 5 f y ( e z g 9 s B v f s z v z s * s x Z y g a e h ",
"f p 8 Z z g z d d n z z w d z D a l g w n j ` w d d s g z s s z l h D c w y z V z b d 5 B d T n z 6 w l z B Z z V z z s 9 g z D ",
"p f 9 s g , ] g z B z h & z f f 2.z h ; w g 1  .z h e g d & V h z Z G s & s j y >.d k * y z 0 0.h z 0 h s 2 ! l s O.z V , s h q ",
"c f B s g h s D s z h h h y L c l z z l y E d h c u f s E h y h z z z G d i v d Z s l g y P B h h z z d E h s I f z z h h a B z ",
"= f s e l z s 9 h z 5 z f y d z z 5 l d k k n n < f d h l y s 1 h g h z z s , z b p l h s t z h 2 h f s D l z $ z l 9 l p y f s ",
"f u ) d h ..g h y f f h >.B s 9 y d z @.z Z ;.z d y R d z ;.h d 8 s g c <.k z y e p D ..z l f d z y E h d ,.f f u d f z @.s f H ",
"f c > > z g #.h s < z h 0 >.f Z , N z 1 ..g z @.f f # 6 l l >.B Z # l Z 5 { k l > B f ; ~ f f t p V + g f y q.z f 2 l f % f h V ",
"B u c s y z f I z p d 0 c f I k d k y z z J d d V s h h I s v c e d c s p z z d p q y M B z z T s q z s E f v y s c s w z z I z ",
"5 z h o l f h 9 s d O z l y z u v @ d v y V q z & s k 5 s y v = s z , n G g & y c X l n g i y s O d v 9 v s f 5 s h + i s h h s ",
"f h ^ d z , z s d 3.h s e s h w $.z z s p z @ d z z [ z n , d z s ;.z d e y h 5 -.g d l s z : ] d z | l d * t h 5 =.f d Z z h > ",
"h c d s s g 5 z h 5 l z h q z z 5 d s c s d d , h k y u k z e l z w s g z y z z 5 n a x a z d > A Z s s f z w l l 2 d d z s f f ",
"V z z d 5 l g z h s z y f h s s f z i s z s d d G z g d 5 z g V z f z 5 z h c f l f 8 d z z d l V z f z t f G n f z k q h d g f ",
"V s w > s s d z e d d z y d l s s r z y 2 u z B Z d d O z z Z z s k # s y h K d Z 5 d a s n z d G y h 0 f s s z y f y z g h s z ",
"k f 5 s v 2 @.d z e h n ; K h B ..s c * t z w =.p n 8 d s 4 / l h u d z @ z z z ] g v : a h z q.k g > p g 5  .s s ( f i # y n w ",
"s ! d f H B z z h h l } s c s u s d H h M d D c l Z k d z d p k Z u h T g l d x p z I z z s f l p @.V z s G E f Q z l [ f z d l ",
"h z G s 0 f g y f z z v g h 6 h z H f h d > z l V f l g 6 d c z v h B 5 h h B z d s t g z 0 s y c d k d < s f H d z n z h s 6 i ",
"g g [ Z f w s s g ..n Z z s s B V h f V w l 9 y z h O.s B w s B k ] s d g d z l J n f K s h f h z z [ f z 5 y f z K h h K g h u ",
"e s 0 q.z l < f z 2 Z k g h v z - y k d D z h # d z 0 2.d f 5 h z ; H d g Z B z * 8 d k ( c k , 9 c 6 +.f l , f f > h v i <.z f ",
"l V z I [ z s z h h z ( g g D d k s E f B c f u h n g h h B s d V z V I z h d z f z ! s s z s y z L f z c f z y c h B ( f c z f ",
"5 d d a c d k * h B c c n l * z z D z z z * z s e h s z 9 h B e y z l p n h y k s z l v l & s n D s z f = z f q h h h z z g * z ",
"h f , t k s 4.d f ^ n l 5 { s s 5.g f , n I z 8.g l t 5 f 9 ..h c ^ K z 2 Z h r <.p s > z f z q.e c e y d z 1.s h >.g n > w h c ",
"I h s 6 s z 5 s d f { z f $ f s u H l f * J B , h d z s f h , g l g { z z @ f f y ~ z z * f f e d z z y k z * s g s ^ h z # f d ",
"c s l V K f g l q z c d d d c c f f f f h n z d l y h h K n g h d s z J g d f y d h c z s l l B s u f f B z i z e f h z h B z d "
};
