/* XPM */
static char *_1cc837cb2fd4893bbec6fe027594282bOb5Dd0W7eOYi1Cn[] = {
/* columns rows colors chars-per-pixel */
"64 64 38 1 ",
"  c #C6C6C6",
". c #C7C7C8",
"X c #C8C7C8",
"o c #CBCBCB",
"O c #CCCBCB",
"+ c #CBCBCC",
"@ c #CCCBCC",
"# c gray80",
"$ c gray81",
"% c #D0CFCF",
"& c #CECFD0",
"* c #D0CFD0",
"= c #CFD0D0",
"- c #D0D1D0",
"; c #D2D2D2",
": c #D2D3D3",
"> c #D4D3D3",
", c #D3D3D4",
"< c #D4D3D4",
"1 c #D3D4D4",
"2 c gray83",
"3 c gray84",
"4 c #D8D7D7",
"5 c #D7D8D7",
"6 c #D7D7D8",
"7 c #D8D7D8",
"8 c #D7D8D8",
"9 c #D8D8D8",
"0 c #DADBDB",
"q c gray86",
"w c #DCDBDB",
"e c #DBDCDB",
"r c #DCDBDC",
"t c #DCDCDD",
"y c #DDDDDD",
"u c #DFDEDE",
"i c #DFDFDF",
"p c gray88",
/* pixels */
"O;99==;===1;18ttt3333393893639999995333;*$$;&;$$oo $*;*;9966,,$o",
"398;,;;==;=;869tt9933988633,11t9t933331;&;=;;%*$@$$$&;3;76;,6,$$",
"999111;,1,;,93tt99;;3386933333399t331;,;;;;;$$;;;;;;;;<,3<6;,3,&",
"1331=;;1,;;,989933&$1;,;;1;333,39933311;;;,;$$&;3;3;,,31333;,,,&",
"3311;;=1,;,;9588933;3;;;,;;;>;;31339311;3;3;&$3933,<3,,,<3,<;,,;",
",3,;=;;11,;;9938933;33;3;&&;3;;;39396111<333;;33633<33<;,<;;&,3,",
"331;11;;1;;;333369;;,,3;*&%3,3;;3393333;3333;,39633<333,;,&*;;3,",
"333;;;1;1;&;3133383,,;;;,&;3,,;;399863;33<;;;;376333333;;,;&,,6,",
"3333;13;;;$;,3;3333;;;;3;$;333,;369933,;3;;&;,333,<3<3<&;&,**<,<",
"33;;3;;31;$;13383933;3,3&$3339;;399333,;;3<&*3333333,33&;&*;&;,<",
"333;;3;;13&333;38913,133,*9;333;399333;;,,3;,33333<333;;,&*;;;<6",
"6;;;1;3;19;33338633,3;693,3;333399t666$;3,,3;3<333;33;;;;;**;;,<",
"33113;;;333369,13393;;333;31;83339e599;;3;33<3333;<333;;;;&$&>;<",
"33333;;3;;3;93;,3391,3;3,;;;;89399t993;;33633<33333<3;;;;;***&;*",
"3,,,3;;,3;339;$;336;;33;33;319e99t9933;3;;336;33933373<&;;*&*&*,",
"33333,<;3;;99;;;;,3&;;333;3337999tt931=;;;;333339t763<;,*;;;***3",
"133;3;;;1;;393$;;1;;;<3999993333e9993;;;;;;3363395993&;;*;<;*%;;",
"3;333;;;;;;393*;;;$$&*9999993333et9t3;;;;$$,33339t993&;%%;<;*;<<",
"33333;;,;;;;9;;$;;$$$;379t9933339i9i73339;$;339947993&;$**<;&+,;",
"838333;;=;;;93;;$;$$$%&39t9699;39tet93333;$;3;969733;;&$;*;*&$;;",
"9383313;$%;;;3;3;;$$$$$&3333333;499tt9;33;$;;36949993;$$;;;&%*;;",
"39333;;;$$;$;3;;;$$$$$$$;;;33333>739933333&;;;3739393;$o$**$$*;>",
"9383331;$$;$;;31,;$$@;$$$;;3;3;333933993;$*<$;3733333;$o$$$$$;;$",
"9933333,;;=;;;;;3;;;$$$$;;;;&&;;93333,33;$;;;,;;3333;;$o$$;*@&*;",
"3333933>;;=;$;3;;;;$$$$$$;;$;;;3963;3;;;$;$;;3;3,,;3;<$$$$;;$$$*",
"39333933,;$;;;3;;$;;$$$;;;;;;;$3333;3;$$$$;,;3333,;33;&&*&*$$&;*",
"99959333,;;;;3;;;$;$$$%&;$;;;$;;3;33;3;;$;;3,33333;33;;3;;;$+$3<",
"9793393<1;;;<333;33;$$;;;;;;;;;3;*3;;3;;;;;;,33;33;<<;3,77;$$ 3<",
"399393333;;;3;;>$333$+;;;;;;;;;;,;31,;3;;3;3333333;3;<3;33*$$ .o",
"34993933;$=;33<;$;3;$+$$;;;$;;;3;;;;;;,;<;;373333<*$;3;;3<*$$oX$",
"99999933;=;13333&;$;oX$o$;;$$;;;;;$;;;;;;3;3999333;$$;;o;;$$*@@*",
"99999793;;;;133334;$$ $o$;;;$;;;;;$$$$;33;3339333,;3;$$o$$;**&@3",
"499999333;;;3395393;$$oo$;;;;;;;;1$$$$$;3;3339933$,33;$$$$;;&$$<",
"399997433;33>339939;o$$o;;;;;;;;;1$$$@$$>339979333;33;;$o$;;*$$%",
"9999393333;333399333$$Oo;;3;;;;3;;=$o$$$&;3399963;;,;<;$X@;;*$$;",
"999993393;;,3339933;$$$ ;33;3;3;3;;;+$;;$33399333;,$<;;$$**,;$$$",
"3939333331333433933;&;$$;3;3;33;;3;;$;;;;;3336333393;;;;$$;;*;$@",
"3993333;33336333993;$$$$;3;$3;;3;;1;;;;=;>3333333993;;;$$*;$**$;",
"39933333;313333433;;;$;$,33;;;;;;;,;;;;;333333;3339;;,;%@;;$$$$$",
"94433;3;33;3>333333$=$;$;3;;;$;;$$;;;;3;;333;;3;3393;;3&$3;;$%&+",
"99943<33;1;;333333>$;;;oo;$;;;$$$$;;;;3;;;3;$;;;3<;;;;;;;33<$$$$",
"939433;33;33333333;;;;;;;;;$;;;=$$;;;3333;;;$;;;33<;<;;;;;;3$$@ ",
"t993333333399333;3;;;3;;;;3;;;;$$$$;$;33;33;$$;;333;;;;*3;33$o$.",
"99e933333;39938;33;3$3;,3;;;;;;$o$$;$;;;;33;;;$$33;;;<;$;3;<$$$+",
"9e9933331;39993333;3;33;33;3;;;=$$$;;$;;3333%;;;;3;;;;;*;;3;$$$ ",
"99tt3333339999333;$$;33;;33;33;;$$;;;$$;33;3;3$3<3,;*;*;$333$@$o",
"9t993833339999333;;;;333633;;3;3;;;$$$$=;33333;;;33;;;;;$333$$$;",
"9599839999w997933>;31;3399;;3;1;=;;$;$=;33933333;333;>*;3993;$$;",
"w9t93399999t995533;;;;;3933;1;;;;;;$;$$=;39333333333<;;;99594>3;",
"99993539999tt954433<;%%;333;;;;3;$;;;$$$;339933333333<3;995433<3",
"999t44999999t99933343;%3333;;;;3;;;33;;$;33999933493333999t53;34",
"95t94559999t994437493;3;993333311;;3;;;;;336973333333333tt993;37",
"9999999999i5t99599993>54993;333;3;;333;;;333544983333333et993933",
"5t5et99995ett954999t934993333333333;;;;;13;349999939333399t93333",
"599594w9999itt5499t993993933333333;;;3;*;33335t999933;339i9t33;3",
"99tiei4ttietptw49e9e9999993;33383;3;;;;33;;;599t9t9333335tt9333;",
"wwt4t4wt4wieiii455wt99599333399433;3$;3;333;3399993333314ttw4333",
"t55iii5ti55tiit4tiw44it593;33999931;$;3;;333339t9933333355i944>3",
"wet54499499iiww555twtitwt933339e993$;;3;;933;339t933;1;9w4e93333",
"tti5tt5549ttiti5t4i4t5iwt953:398t95$;333353333799933;3%t4te54333",
"5t5ieew5994iii49tiwe5eit99551115t99;;;;339833599t933;3;95tt9433;",
"eiieett495etiii94ititetet5543313e999$$;3393;3538935;3;4w9ipt73<%",
"4wwiwtt99i9iittwieieiett53333;;39t9991;;3:33;333931;3>5itipt73;;",
"4itwtti94r5ii5ww5t4ieett93531;1399e9933333333333333334495ept9;;$"
};
