/* XPM */
static char *result[] = {
/* columns rows colors chars-per-pixel */
"64 64 256 2 ",
"   c #1E211E",
".  c #2A201F",
"X  c #1B2626",
"o  c #1D262B",
"O  c #1D292C",
"+  c #182831",
"@  c #1D2B32",
"#  c #1D3434",
"$  c #282726",
"%  c #21262B",
"&  c #222B2D",
"*  c #2B2C2D",
"=  c #352B28",
"-  c #32312C",
";  c #262732",
":  c #232D32",
">  c #2B2E33",
",  c #352E32",
"<  c #253135",
"1  c #2B3234",
"2  c #29373B",
"3  c #2A353C",
"4  c #343334",
"5  c #3B3434",
"6  c #34353A",
"7  c #38393B",
"8  c #562F1D",
"9  c #45312C",
"0  c #54362D",
"q  c #463837",
"w  c #583A35",
"e  c #653E37",
"r  c #773C33",
"t  c #48413D",
"y  c #5A443D",
"u  c #68443B",
"i  c #754630",
"p  c #78473D",
"a  c #2C3B41",
"s  c #383C43",
"d  c #433D43",
"f  c #543C41",
"g  c #673C42",
"h  c #394349",
"j  c #3D4C55",
"k  c #474447",
"l  c #574846",
"z  c #5A514E",
"x  c #454C52",
"c  c #594D52",
"v  c #4B555A",
"b  c #575556",
"n  c #654B47",
"m  c #764B44",
"M  c #67514A",
"N  c #755449",
"B  c #764E51",
"V  c #685556",
"C  c #785A56",
"Z  c #7A635B",
"A  c #525C63",
"S  c #6B5F64",
"D  c #5A646A",
"F  c #696366",
"G  c #776666",
"H  c #676B74",
"J  c #757172",
"K  c #7C7375",
"L  c #813E3E",
"P  c #8B4D39",
"I  c #A05737",
"U  c #C9633F",
"Y  c #87564A",
"T  c #985A47",
"R  c #8E5451",
"E  c #875B54",
"W  c #A75C49",
"Q  c #94614E",
"!  c #88665B",
"~  c #986759",
"^  c #AF6649",
"/  c #A86957",
"(  c #B36A57",
")  c #AA735A",
"_  c #BA7559",
"`  c #845C63",
"'  c #876B64",
"]  c #956865",
"[  c #98766A",
"{  c #846F71",
"}  c #89787A",
"|  c #957C7A",
" . c #A97767",
".. c #AC726B",
"X. c #B77A66",
"o. c #CC704E",
"O. c #C57859",
"+. c #E17C59",
"@. c #C97B64",
"#. c #CF7B69",
"$. c #988379",
"%. c #AB836D",
"&. c #BC836A",
"*. c #AA8679",
"=. c #B88776",
"-. c #BD8A74",
";. c #C88569",
":. c #DC8D66",
">. c #D68A68",
",. c #CD926A",
"<. c #DA936C",
"1. c #C88B75",
"2. c #D48D73",
"3. c #D08A76",
"4. c #CA947C",
"5. c #D49374",
"6. c #D69779",
"7. c #D4947B",
"8. c #DB957B",
"9. c #DB9A7D",
"0. c #E38B66",
"q. c #E7966D",
"w. c #ED9374",
"e. c #E69A76",
"r. c #E5A17B",
"t. c #F4A77C",
"y. c #747D82",
"u. c #8A8786",
"i. c #998989",
"p. c #9E9799",
"a. c #A88A86",
"s. c #BA8B83",
"d. c #A8948B",
"f. c #B99588",
"g. c #AD9995",
"h. c #B69B96",
"j. c #B1A198",
"k. c #A9A0A4",
"l. c #B3AAAA",
"z. c #C59382",
"x. c #C89987",
"c. c #CC938A",
"v. c #CB9C8A",
"b. c #D49C84",
"n. c #DB9C82",
"m. c #D89B87",
"M. c #D49D8A",
"N. c #C79D91",
"B. c #E49C83",
"V. c #CCA18D",
"C. c #D4A38D",
"Z. c #DBA38B",
"A. c #DCA68A",
"S. c #CBA394",
"D. c #C7A699",
"F. c #CBA59B",
"G. c #D3A494",
"H. c #DBA593",
"J. c #D5A996",
"K. c #DCAC95",
"L. c #D5AB9C",
"P. c #DBAC9B",
"I. c #D9B197",
"U. c #DCB29B",
"Y. c #E4A384",
"T. c #E4A48B",
"R. c #E9A989",
"E. c #F2AC86",
"W. c #F6B38A",
"Q. c #E2AC93",
"!. c #E6AB97",
"~. c #EFAF93",
"^. c #EAB697",
"/. c #E3B39C",
"(. c #EAB59B",
"). c #F5BA98",
"_. c #CAABA4",
"`. c #D8ACA3",
"'. c #CBB4AB",
"]. c #DCB3A4",
"[. c #D5B5A8",
"{. c #DBB5AA",
"}. c #DDBAAD",
"|. c #C2AFB1",
" X c #CBB8B5",
".X c #D5BAB4",
"XX c #DCBCB2",
"oX c #E3B5A3",
"OX c #E7B6A5",
"+X c #E3BAA5",
"@X c #EBBBA4",
"#X c #E4BCAB",
"$X c #EBBDAB",
"%X c #F3BCA4",
"&X c #F4BBA8",
"*X c #E3BDB2",
"=X c #EABEB3",
"-X c #EBBCB8",
";X c #F5BFB7",
":X c #F7C29B",
">X c #CFC5BE",
",X c #DDC1B5",
"<X c #D7C5BC",
"1X c #DCC3BB",
"2X c #E7C1AA",
"3X c #ECC2AD",
"4X c #F3C3AD",
"5X c #F8C6AA",
"6X c #E5C3B4",
"7X c #EBC4B3",
"8X c #E4C9B4",
"9X c #ECCAB5",
"0X c #E4C5BA",
"qX c #EBC6BA",
"wX c #E5C9BD",
"eX c #EBCBBC",
"rX c #F3C5B2",
"tX c #F3CAB4",
"yX c #FACCB3",
"uX c #F2CCBB",
"iX c #F8CABA",
"pX c #EFD1BE",
"aX c #F4D1BD",
"sX c #FBD4B9",
"dX c #DCCAC6",
"fX c #DCD1CA",
"gX c #E3CCC4",
"hX c #EBCDC2",
"jX c #E4CCC8",
"kX c #F2CDC2",
"lX c #E5D1C6",
"zX c #EDD1C4",
"xX c #E5D3CC",
"cX c #ECD4CB",
"vX c #EDD9CC",
"bX c #F2D3C4",
"nX c #F9D7C5",
"mX c #F3D5CA",
"MX c #F4D9CD",
"NX c #FBDBCB",
"BX c #E0CFD0",
"VX c #EBD6D1",
"CX c #EDDBD3",
"ZX c #E8D9D6",
"AX c #F4DCD3",
"SX c #F4DCD7",
"DX c #FADED2",
"FX c #FEE0C0",
"GX c #EEE2DB",
"HX c #FBE2D5",
"JX c #F5E4D9",
"KX c #F4E2DC",
"LX c #FAE5DB",
"PX c #F5EAE5",
"IX c #FAEAE3",
"UX c #F5EEE8",
/* pixels */
"4.b.*.$ 1 & q 1.7.%Xx.K.Z.5.B.8.E.;.6.(.).B.Z.5.~.7.T B.9.MXv Y e./.;X1.Z.$X#X7XuX/.kXw O O O l M sX~.yX^.I.5X5X%XtX'.7 & = yX^.",
"s.l * & : O Q -._ Q.@X/.A.2.8.X.;.T T.,.2.9.5.Y.,.;.T ^ w.wXl W !.H.T.H.rXqX9XHX6XiX3X$X7X6 O O < 1.sX:XI.nX9XpXMXMXeX2 O * 6.5X",
"Z.t & 1 @ O M.1.n.n.T.b.b.Y.9.;.7.( _ 2.2.2.~.( ( B.N o.T.SX/ ~.L.&Xm.$X4XuXbXnXnX6Xv.qX2XhX7 O O & %.4XsXzXvXwXwXpX X* # O N 4.",
"=.< l & O C m.3.b.B.Z.n.6.Q.T.Z.m.T._ >.>.@.2.b.T.4.u o.B.a.( &X`.7X!.&X/.7XaXqX}.9X7XOX7X$X9Xl @ % * @XMX8XHXzXHXcXF.1 O O 6.~ ",
"& & O O * =.4.) 1.T.T.4.T.v.6.H.T.8.T.5.8.T.;.@.8.0 m / ,Xl R yXhX/.H.=XOXH.iX].#X0X#XiXtXOX3XrXtXa.& l &XHX1XJXvXpXM & < O O % ",
"o O O O o 1.1.m.Q.c.1.X.!.5.1.8.9.2.B.T.T.n.4.;.w n !._ S.& R (.MX#XH.$X/.`.oX#XoXOX#X9XoXOXrXtX=XnXa.% = %.vXwXwXMXp # o O O O ",
"O O O O o o . H.6X].G.K.&XrXZ.5.T.T.6.@.5.m.6.X.e u X.[ f.1 X.%XSXMX6XT.OXL.P.H.9XP.$XOX$XuX4XtXrX4XmX.X* & [ 8XpXvXK 6 X M N y ",
"n : : O o o O O S.2X3XOXOXm.Q.~.n.6.Q.%XQ.8.~.2.w 0 ;.=XG & ! / X..XhXnXK.OX-X].OXC.3XL.7X9XqX7X7XP.$XmXLX* o I.GXyX1 % M 4.*.x.",
"X.! q O @ O O @ & @ '.@XH.A.!.7.T.(.b.;.@X~.7.X.Y Y &XjXq ; & V E w T W >.= + = oX(.$XtXI.iXqXOXqXOX#X#XmXXXq @ t 5 q [ 9XpX2X-.",
"{.iX- & < O @ @ O O & O &  .(.OXQ.7.^.B.n.Z.A.3.m p 5XLXg.: O 6 ; ; : w C q W P . : % S.oXP.=X$X&XoXOX/.{.gXqX7 X Y [ 2XbXnXpX2X",
"/.E - : & O O & @ O O O O o o u =.(.4X+X3XrXyXe p Y MX[ 1 : O & o % + & : $ < @ r ( W R M C i oXQ.$XoXkXL.gXC ; o k ,XzXpXpX5X2X",
"*.w - : O O O O O O O O O @ O o O + * 9X#X/.T w u ~ iXfX1 O O O O o o o o O O o + l w w B N m , X | H.#XoX].1 & / .XbXuX5X^.R.>.",
"d.l * > 1 : : 1 : & : @ O % o % : O O % & o 9 p Y ;.bXZX1 O O O O o s c % K dXi.7 ; % o X % O O + o X   5 ' k O Q pX9XsX2X:XW.r.",
"cXZXdXd.K K l.l.xX|.jXxX>Xu.u.l.l.{ $ = * | l o > 3X1.u.> O O O % l.#XXXhXbXD.*.h.`.{.;XoX$XOXqXqXoXP.N.AX>Xs : N ^.sX5X5Xt.t.r.",
"S.*X0XkXXXv.x.M.H.8.m.4.H./.<X<XdX6Xv.G.kX!.~ $.: & o O & < O dXj.> hX0XSXkXeXN.g.f.6XmX`.*Xf.s.P.z.S.LXSXj.1 M %.yX2X2X:X:Xt.r.",
"cX6X0X#XP.b.].OX(.Q.M.4.@X].L.XXXXN.7XP.*X#X].i.4 O O O o % 6X2X*X5 1XjXjX}.D.F.i.h.[.L.{.L.x.c.OXz.,XF.UXJX7 * ! ^.5XyXyXq.:X6.",
"7X#XeX4X`.Q.L.H.7.1./.oXH.M.2X6X`.[.uXOX#XtX[.XXb 1 < o o t *XU.L.qX; 6X1X0X{.mXa.{.6XkXqX*XoXN.c.4._.zXzXl 1 O B tXyXtX3XE.<.-.",
"6X#X+X/.(.@X0XN.#XP.#X$XoX].oXG.}.6X`.6X8X#XtXV v x 2 < # tX}.J.OX{.$.k SX0XmX}.f.6X[.qXeX-XqX6Xm.#XXXDXVX{ 1 @ $ a.$X4XU.^.r.A.",
"*XoXoX$X7XoX7X+X} K.P.aXrX3X$XG.S.XX`.6XXX7XrXs.x x a # '.0X}.v.C.`.`.< 1XjXSXmX6XhXmXbXeXqX$XH.3.F..X.XSXb : O 6 M a.;X5XtXQ.) ",
"H.L.z.oXqXOXA.9X`.L.OXOXoXP.H.x.L.S.`.F.].=X=.' s # O h.[.uX,X7X!./.[.g.dXSXlXAX*X#XwXhXkXhXU.c.|.a.jXBX,Xk 6 O O q [ /.I.yXsXsX",
"c.-.x././.qX6X#Xx.G.v.^.$X/.z.z.G.`.S.qXL.iX4.G v < Z *XeX}.*X7XoXL.H.XX@ ZXMXmX=XmXbXmX0XhX7X(..X`. X|.XX* & O & 7 z l R.^.5X5X",
"l.G.L.XXv.cX[.m H.M.G.v.H.z.1.P.].U.S.L.@X4Xm x a dXeXbXmXjX6XL.qXG.M.=X-X.X}.6X*XzXmXbXDXNXaXs.mXmX.Xg.a.; : O o % n b [ 3X).6.",
"$ : & h.F _.`.`.v.v.L.M.=.1.N.L.oXx.S.0XT.-.e J 7 *X2X[.wX1XwX6X[.{.oX6X*X; gXmXhXmXzXLXMXAXqXhXVXSX<X[.M > @ O o O & w l N /.V.",
"X t q l l S b XXF._.N.s.v.c.XX].P.`.S.4.8.E f.@ +X#X7XeXgXcX0X,X}.qX;XP.H._.<X1XkXmXVXSXJXSXAXvXVXhXgXB 7 1 O O O O o : 1 9 Y ] ",
": < 6 > q q 4 > % l [.S.M.}.F.H.M.H.OXm.@XY 6 -X#XS.uXqX,XvXhXvX0XqX@XQ.!.vXZXlXmXjXvXLXCXVX0XIXjX.X-Xc : @ o o O o o o 1 s 9 l ",
"2 3 6 < < < > s c # |.G {._.v.c.H.v. .`.X.E XXP.2XOX}.8X}.0X6XMXgX+XuX].qXL.l cXhXcXIXvXGX[.zX,X_.l.`.H u.> g q < 6 ; % o @ b 4 ",
"> 3 < @ # a k.2 y.< : X [. .N.oXc.=.G.2.e ~ 6XP.@XP.uX].N.wXkX6XN.@XK./.G.+X{.zXCXVXKXJXLXdX6XHXBXx.l.GXGXSXAXOX! m 9 B _.& O & ",
"<.T < 1 # # A v 2 1 ~ O o O 6 a.uXgX}.%.[ W 1.4.J.9X9X8X].J.eXoXJ.rXtX@XQ.#X9X XCXSXPXcXJXhXJXf.,Xa.d cXZX.X1XN.$.'.hXm 4.f.c O ",
"8.;.<.Y t & & 2 k.# * * & % O O & gX/ ' hX2.) / ) @XsX3Xx.-.qX9X#X(.Q.1.C.Q.7X: SXCXhXSXGXGXIXUX! 1 K g.VXXXSXjXSXgX,Xh.f.c.[ f ",
"W.) _ &.,.p # 2 # 3 1 : O N.#X+X_.kXl O `.M./ 1./ W >.;.~ W 2.m.OXT.!.Q./.4X#X6 0XVXPXKXLXUX2Xp - v ,XzXhXCXgXcXIXAXPXwX.Xi.L...",
"e.5.e.<._ <.) # # 6 % O o U.G.@X].uX#X8XAX>XX.m.;.>.>._ ~ ( O.@.#._ o.Y.8.q.T.| _.PXIXIXUXHXq O O O vXMXhXSXDXCXJXHXJXKXGXf.l.l.",
"r.r.<.<.e.;.<.) > @ & o = 4XK.V.P./.C.3X$XnXUXPX2XeXDX$XA.).H.B.2.2.B.B.&X5X&XnX& fXLXHXC.u l O o h PXJXzXNXgXSXMXlXLXPXKXPXHXgX",
";.W.,.E._ <.T.1 & & O O '.tXQ.9XI.@X(.6.9.1.+XI.MXLX* G g.GXwXzXCXD.#X+XM.B.T.MX> u.eXE w o o O l.k ZXPXUXZXSXvXjXHXlXGXJXKXPXGX",
"R.,.r.<.r.%.2 & & X O < 3X/.U.2XU.2XA.&.A.V.&.-.A.&.3XxX1 O & O O o O & o : @ O o o o 4 C l d 7 O XXvX<XxXKXSXAXSXZXGXPXGXAXGXGX",
"W.,.r.r.U.- O O O 1 { '.U.yX+X8XC.2XI.C.9XC.4.) ) ).;./.C.OXG 6 O O O O O O & t 5 m Y e 9 $ , 5 3  XD.i.'.lXDXeXbXmXxXZXdXPXJXCX",
"6.R.).y # O o O 7 b s *XV.4X:XsX3XI.2X^.I.U.2XC.T.A.&.^.C.K.Q.0 & O O O o % d 3X@.q e X.5 7 q , F '._.XX.XvXbXmX9XNXDXvXGXPXJXKX",
"&.:X4 : O O O - oX3X5X5X2X1./.9X+XtX5X-.3X/.2XI.4.:X^.v.2XI.&.: O O O o o O $ 7 6 , t M w 7 4 2 1X X'.[ XXjXDXNX2X6XpXh.HXHXCXSX",
"I.y & O O O # pX~.2XA.(.C.4.tX+X2X/./.A.(.%./.I.).1.X.T.yXU.5 & O O o O O & & % G | s.D.P.,X* & P.OXS.G. X.XhXMX9X9XpXHXvXzXwX X",
"u & O O O O dX9X@X9XI.4XI.).U.3X2XsXS.I.R.2Xx.J.4.b.;.u T.0 > O o O o < s J } vX6X#XnXnXrXV.2 7 -X*XP.c.=X[.6XDX}.' eXzXvXDXeXMX",
"O O O X O O sX7XzX9X/.4XtX4XA.oXI.U.2XyXC.2XV.4.) / m s Y t : O o O s i.D.[.7XtX2X7XnXaXbX#X1 d E rX!.b.m.7X}.}.] l S.NXeXDXDXbX",
"O X o o o X H.I.bX6X#X+X@XOXyX:X2XI.yX5XA.-.^.x.&.C.y q M 1 > O O c F.{.iXNX8 HX*.8XnXzX2XF.2 i.`.H.m.!.;.P.=X$X..*.6XuXNXNXDXhX",
"2 h j @ @ .X+X@X3X0X6X3X3XtX-.2X^./.9XJ.U.-.6.O.Y Q  .z.l 6 2 O F s.G.hXaXMXmXHXHXHXMXHXMX*.l { v.m.B.T.T.4X .oXH.z.f.nXbXmXhXeX",
"h h 3 J @ +X2X2XG.{.cXqX3XY T.yX2XI.3X3X/.+XV.P ) ^.y 4.5 * < G v.NXnX0XvXMXAXMXHXbXHXAXMX+XF $.X.m.7.B.M.yXm.0 e ].tX7X#XhXgXHX",
" .( s : o < $ M l ] a.l.< p / 9 yX(.2XY.^.6.^ / $ $ t ! F j K z.DXnXSXMXJXHXHXAXDXMX@XbXvX3XK ] !.%X%XOXm 0 4 - * 4 * > > - = * ",
"p m ) Z 2 & q `._.0XjXBXcXg.4 : O %  .P.^ Y.r.C : 0 [ m { p.0XtXkXNXwXLXLXHXeXvXzXNX@XiXqX^.[  .P 9 , > : & O O o O O O O O O < ",
"W p m E 0 l - dXjX X.XcXXX.X'.GXF 3 O % ^ E.R.Z 7 l M Z 1 *X*XDXbXzXNXAXJXDXbXvXbX7X2XbXbXtXq $ 5 d 1 % O o O O O O O O O O O w ",
"q.W.L ] r 5 | jXZXfXZX0X1XjXjXjXAXvX Xd @ , ! - & O X 2 eX6XH.AXHXvXnXHXMXHXAXmXzXqXuXeXbXvX[ k > o O o O O O o O O o O @ O O O ",
"^.:.O.Y m n `.dX1XVX.XgXVXZXZXKXVXmXZXZXCX-Xd.h.G Z 1 h.OXOX@XNXHXSXmXXXMXAXMX}.zXeX9XnXpX}.cXF.x s o & O O O # h h a o + O O O ",
"&XR.@.Y $ X jXmXgXvXcXjXgXBXSXVXVXCXZXKXKXgXkXKXUX$.>X,XtXnXuXSXbXmXAX6XbXMXzXvXmXeXG.eXuXmXh.}.' F & < & O ..p.s a { V x ; + + ",
"E./ ; o O o XXxXZXVX'.uXgXZXZXSXgXxXCXJXjXcXVXk.SXk.FX- {.uXaXAXSXNXmXMXkXNXbXhXbXeXXX*X*XaX~ 5Xh. .M O O 5 / ] &Xd ] ] g.v + ; ",
"@ O o O o ; XXKXGXZXgXhXcXSXSXgXgXxXjXLX6XSXxXg.xXGXL.Z * sXMXAXDXvXeXnXmXwXuXbXx.#XeXhX{.7XmX9 `.L.K @ O   r P L ] ( R ] &X] ; ",
"@ o O O O O o : .XZXdXcXdXCXSXmXVXBXSXhXjXhXqXN.vXxXsX[ 4 O O JXSXAXMXnXMXpXf.bXOX#X7X*X$X+X6XtXN.g.i.j % T.e.0.#.g r ( L ] W s.",
"< 2 O < < < O O O ; *X`.jXVXMX0XCXZXvX*XcX*XwX{.vXIXGXsX5 : O O q MXnXAXkXwX7X[ OXOXtXnX*.+XoXtX-XAXh.c X 4X2X^.A.W.^ p g #...L ",
"3 D < 1 : O O O o o + qXdXjXcXXXVXVXzXVXXX`.qXx.D.i.dX%.*.2 7 $ Z 5 bXeXbXuX6XtXOXuX9X=X/.3XrXf.7XDX.Xu.  %X4.Q.x.4.Q.r.@.L g ..",
"B L 9 * : < O O O & O O V XXXXcXZXzXjXSX{.F.[.1XbXzXx V } & S O.R._ ~ q S bX6X#X!.L.7XL.4XE U.}.bXtX,X.Xx.).(.^.&.E.K ^.X.~./ g ",
"JXUXu.D & O O O @ & O ; ; o *XjXSXmXjXhXwXf.! hXj.i.vXBXi.@ ) 2XA.).Y.5.^ 9 #X#X3.1.s.^.4X3XtXaX#X=XoX+X(.V.^.4.Q.P.p.D.*.a.;X&X",
"PXu.x : : 6 d v q : @ ; KX: O mXxXmXVXXX`.F._.LX[.t JXdXv O ,.tX3X:XR.E.>.:.I 9 @X%X4...!.$X7XJ.].5XtX& _ Q.r./.Q.! _.$.S.L.U.8X",
"UXA x : , c c G ` G ` V c ; < : s mXmXmXc._.{.bXj.xXGXKXA 1 _ 3XsX@X).:Xr.<.<.<.W q Z.Z.%.tX@X3XC.].u y r.9.t 9.~.x._.G i.H.}.2X",
"k.v c S.f c b f s c F j s UX} B + o  X-Xa.{.0XNXHX'.UXLX2 X.Y.9XsX^./.r.:X).W.q.o.P P 0 q C uXH.' # O M C.i Y.r.=.5.Y.b.V ,.( A.",
"K k M d D D D D x D H s 3 3 s V q V : X .XVX=XVX,XGXJX'.5 ~.9XpXsX3X3X^.W.E.W.e.0.^ U o.O.*.!.4 < & O c e.Y.C ;.8.<.2.Z.<.i 9.A.",
"z M 2 1 v h J H y.v x H H s BXj x F G d O O ,XMXvXxXfX$.Q ;.2XsXyXQ.:X^.t.<.W.e.o.+.+.w.0.~.2X=.9.V >  .;.<.Y >._ X.-.&.5 = . %.",
"*.M 6 S 6 b d x y.u.S d a s v l.A v a q z y O O - UXJXa / ^.5X5X5X5X^.).^.r.t.q.U w.0.t.w.;.2.2.4.oXO N 5.' ! = * * & - - t 5 < ",
"= [ l %.>.O._ / / B.3.Q b s y.d dXH A 2 h 5 S O O O O # N sX^.:XW.:X:XR.:XW.q.0.o.0.w.B.w.#.@.@.1.f.o M O O % O X & # $ O t y & ",
"& N R q.e.q.o.#.O.>.I @./ ..c s s }.6 2 x k & O O O X - i I.:XW.).W.:X:XW.t.o.U 0.w.+.O.w.#.2.5.1.6.o o o $ eX& /.(.f.~ R.U.) 5."
};
